<svg width="4" height="12" viewBox="0 0 4 12" fill="none" xmlns="http://www.w3.org/2000/svg">
<path d="M2.00004 2.00002C1.63185 2.00002 1.33337 1.70154 1.33337 1.33335C1.33337 0.965164 1.63185 0.666687 2.00004 0.666687C2.36823 0.666687 2.66671 0.965164 2.66671 1.33335C2.66671 1.70154 2.36823 2.00002 2.00004 2.00002Z" stroke="#7D7D7D" stroke-width="1.33333" stroke-linecap="round" stroke-linejoin="round"/>
<path d="M2.00004 6.66669C1.63185 6.66669 1.33337 6.36821 1.33337 6.00002C1.33337 5.63183 1.63185 5.33335 2.00004 5.33335C2.36823 5.33335 2.66671 5.63183 2.66671 6.00002C2.66671 6.36821 2.36823 6.66669 2.00004 6.66669Z" stroke="#7D7D7D" stroke-width="1.33333" stroke-linecap="round" stroke-linejoin="round"/>
<path d="M2.00004 11.3334C1.63185 11.3334 1.33337 11.0349 1.33337 10.6667C1.33337 10.2985 1.63185 10 2.00004 10C2.36823 10 2.66671 10.2985 2.66671 10.6667C2.66671 11.0349 2.36823 11.3334 2.00004 11.3334Z" stroke="#7D7D7D" stroke-width="1.33333" stroke-linecap="round" stroke-linejoin="round"/>
</svg>
