<svg width="8" height="8" viewBox="0 0 8 8" fill="none" xmlns="http://www.w3.org/2000/svg">
<path d="M0.569199 4.32852C0.569199 4.54066 0.746706 4.71384 0.95452 4.71384H3.75568V7.51499C3.75568 7.72281 3.92886 7.90032 4.141 7.90032C4.35314 7.90032 4.53065 7.72281 4.53065 7.51499V4.71384H7.32748C7.53529 4.71384 7.7128 4.54066 7.7128 4.32852C7.7128 4.11637 7.53529 3.93886 7.32748 3.93886H4.53065V1.14204C4.53065 0.934222 4.35314 0.756714 4.141 0.756714C3.92886 0.756714 3.75568 0.934222 3.75568 1.14204V3.93886H0.95452C0.746706 3.93886 0.569199 4.11637 0.569199 4.32852Z" fill="#8C8C8C"/>
</svg>
