<svg width="5" height="8" viewBox="0 0 5 8" fill="none" xmlns="http://www.w3.org/2000/svg">
<path d="M0.737366 4.32852C0.737366 4.43139 0.773989 4.52192 0.851303 4.6001L4.07818 7.78921C4.14735 7.86328 4.23688 7.90032 4.34268 7.90032C4.55427 7.90032 4.71704 7.73983 4.71704 7.52585C4.71704 7.41886 4.67228 7.32833 4.60717 7.25838L1.6448 4.32852L4.60717 1.39865C4.67228 1.3287 4.71704 1.23405 4.71704 1.13118C4.71704 0.917198 4.55427 0.756714 4.34268 0.756714C4.23688 0.756714 4.14735 0.793749 4.07818 0.863703L0.851303 4.05693C0.773989 4.131 0.737366 4.22564 0.737366 4.32852Z" fill="#8C8C8C"/>
</svg>
