<svg width="5" height="6" viewBox="0 0 5 6" fill="none" xmlns="http://www.w3.org/2000/svg">
<path d="M1.37598 6.00748H3.8468C4.24376 6.00748 4.45438 5.78901 4.45438 5.35755V3.47608C4.45438 3.04463 4.24376 2.8289 3.8468 2.8289H1.37598C0.979029 2.8289 0.768402 3.04463 0.768402 3.47608V5.35755C0.768402 5.78901 0.979029 6.00748 1.37598 6.00748ZM1.24096 3.03917H1.67032V2.11618C1.67032 1.42804 2.10507 1.06212 2.61004 1.06212C3.11501 1.06212 3.55516 1.42804 3.55516 2.11618V3.03917H3.98182V2.17626C3.98182 1.1495 3.31753 0.64978 2.61004 0.64978C1.90525 0.64978 1.24096 1.1495 1.24096 2.17626V3.03917Z" fill="#8C8C8C"/>
</svg>
