<svg width="6" height="6" viewBox="0 0 6 6" fill="none" xmlns="http://www.w3.org/2000/svg">
<path d="M0.912628 3.80517C0.912628 5.02701 1.88218 6.00748 3.08797 6.00748C4.29377 6.00748 5.26086 5.02701 5.26086 3.80517C5.26086 3.68574 5.17718 3.59864 5.05661 3.59864C4.94094 3.59864 4.86467 3.68574 4.86467 3.80517C4.86467 4.80555 4.07474 5.60683 3.08797 5.60683C2.10119 5.60683 1.30882 4.80555 1.30882 3.80517C1.30882 2.80729 2.10119 2.00849 3.08797 2.00849C3.27499 2.00849 3.44972 2.02342 3.59489 2.05826L2.85912 2.79485C2.8222 2.83467 2.80252 2.88444 2.80252 2.93669C2.80252 3.05117 2.88619 3.13577 2.99692 3.13577C3.05844 3.13577 3.1052 3.11586 3.13965 3.07854L4.15349 2.04831C4.19779 2.006 4.21502 1.95623 4.21502 1.899C4.21502 1.84425 4.19287 1.78951 4.15349 1.74969L3.13965 0.709504C3.1052 0.669688 3.05598 0.64978 2.99692 0.64978C2.88619 0.64978 2.80252 0.739365 2.80252 0.853836C2.80252 0.906094 2.8222 0.955863 2.85666 0.995679L3.51123 1.65015C3.38327 1.62526 3.23808 1.60785 3.08797 1.60785C1.88218 1.60785 0.912628 2.58582 0.912628 3.80517Z" fill="#8C8C8C"/>
</svg>
