<svg width="5" height="8" viewBox="0 0 5 8" fill="none" xmlns="http://www.w3.org/2000/svg">
<path d="M4.36194 4.32852C4.36194 4.22564 4.32125 4.131 4.24393 4.05693L1.02113 0.863703C0.947882 0.793749 0.858359 0.756714 0.75256 0.756714C0.545031 0.756714 0.382263 0.917198 0.382263 1.13118C0.382263 1.23405 0.422955 1.3287 0.488062 1.39865L3.45044 4.32852L0.488062 7.25838C0.422955 7.32833 0.382263 7.41886 0.382263 7.52585C0.382263 7.73983 0.545031 7.90032 0.75256 7.90032C0.858359 7.90032 0.947882 7.86328 1.02113 7.78921L4.24393 4.6001C4.32125 4.52192 4.36194 4.43139 4.36194 4.32852Z" fill="black" fill-opacity="0.1"/>
</svg>
