<svg width="6" height="8" viewBox="0 0 6 8" fill="none" xmlns="http://www.w3.org/2000/svg">
<path d="M2.96356 5.42205C3.09966 5.42205 3.21677 5.30811 3.21677 5.17518V1.92463L3.19778 1.44987L3.40984 1.67459L3.89093 2.18733C3.93524 2.23797 3.99854 2.2633 4.06185 2.2633C4.19162 2.2633 4.2929 2.16834 4.2929 2.03857C4.2929 1.97211 4.26441 1.92147 4.21694 1.87399L3.14714 0.842171C3.08383 0.778869 3.03003 0.756714 2.96356 0.756714C2.90026 0.756714 2.84645 0.778869 2.77999 0.842171L1.71019 1.87399C1.66271 1.92147 1.63739 1.97211 1.63739 2.03857C1.63739 2.16834 1.73234 2.2633 1.86528 2.2633C1.92541 2.2633 1.99504 2.23797 2.03936 2.18733L2.51728 1.67459L2.73251 1.44987L2.71352 1.92463V5.17518C2.71352 5.30811 2.82746 5.42205 2.96356 5.42205ZM1.14997 7.90032H4.78032C5.44182 7.90032 5.77416 7.57115 5.77416 6.91914V3.76038C5.77416 3.10837 5.44182 2.7792 4.78032 2.7792H3.89726V3.28878H4.77083C5.08417 3.28878 5.26458 3.4597 5.26458 3.78887V6.89065C5.26458 7.21982 5.08417 7.39074 4.77083 7.39074H1.1563C0.839787 7.39074 0.665707 7.21982 0.665707 6.89065V3.78887C0.665707 3.4597 0.839787 3.28878 1.1563 3.28878H2.03303V2.7792H1.14997C0.488462 2.7792 0.156128 3.10837 0.156128 3.76038V6.91914C0.156128 7.57115 0.488462 7.90032 1.14997 7.90032Z" fill="#8C8C8C"/>
</svg>
