<svg width="14" height="14" viewBox="0 0 14 14" fill="none" xmlns="http://www.w3.org/2000/svg">
<path opacity="0.28" fill-rule="evenodd" clip-rule="evenodd" d="M5.04079 1.17967L4.07617 1.02267L4.00709 0.780897L4.64935 0.597385C4.93301 0.516237 5.14751 0.454872 5.37039 0.429958C5.56727 0.40795 5.76599 0.40795 5.96287 0.429958C6.18575 0.454872 6.40025 0.516236 6.68391 0.597384L7.32617 0.780897C7.50806 0.832867 7.56147 0.847527 7.6116 0.857258C7.83536 0.900698 8.06653 0.886047 8.28302 0.814703C8.33152 0.798721 8.38265 0.777434 8.55653 0.702916L8.61541 0.677588C8.82356 0.5879 9.03603 0.496351 9.23053 0.466041C10.0112 0.344385 10.7565 0.835832 10.9522 1.60129C11.0009 1.792 11.0005 2.02334 11 2.24999L11 2.31411V5.66675L11.9546 5.66675C12.1228 5.66673 12.2867 5.66671 12.4255 5.67805C12.5778 5.6905 12.7577 5.71988 12.9386 5.81208C13.1895 5.93991 13.3935 6.14388 13.5213 6.39477C13.6135 6.57572 13.6429 6.75554 13.6553 6.90793C13.6667 7.04667 13.6667 7.21047 13.6666 7.37868L13.6666 11.6668C13.6666 12.7713 12.7712 13.6668 11.6666 13.6668H4.70518C4.07565 13.6668 3.56283 13.6668 3.14648 13.6328C2.71616 13.5976 2.33053 13.5228 1.97133 13.3398C1.40684 13.0522 0.947897 12.5932 0.660278 12.0287C0.477251 11.6695 0.402459 11.2839 0.367301 10.8536C0.333283 10.4372 0.333289 9.92439 0.333297 9.29485L0.333297 2.31411L0.333214 2.25C0.332772 2.02335 0.332322 1.792 0.381077 1.60129C0.504135 1.11996 0.844512 0.746971 1.27435 0.566644L4.07617 1.02267L4.00709 0.780897C3.8252 0.832866 3.77179 0.847527 3.72166 0.857258C3.4979 0.900698 3.26673 0.886047 3.05024 0.814703C3.00174 0.798721 2.95061 0.777433 2.77674 0.702916L2.71784 0.677586C2.50969 0.587899 2.29723 0.496351 2.10273 0.466041C1.81297 0.420884 1.52807 0.460199 1.27435 0.566644M11 11.6668V7.00009H11.9333C12.131 7.00009 12.2392 7.00061 12.3169 7.00696L12.3257 7.00772L12.3264 7.01651C12.3328 7.09423 12.3333 7.2024 12.3333 7.40009V11.6668C12.3333 12.0349 12.0348 12.3334 11.6666 12.3334C11.2984 12.3334 11 12.0349 11 11.6668Z" fill="#8891A3"/>
</svg>
